<?xml version="1.0" standalone="no"?>
<!DOCTYPE svg PUBLIC "-//W3C//DTD SVG 20010904//EN"
 "http://www.w3.org/TR/2001/REC-SVG-20010904/DTD/svg10.dtd">
<svg version="1.0" xmlns="http://www.w3.org/2000/svg"
 width="1250.000000pt" height="1250.000000pt" viewBox="0 0 1250.000000 1250.000000"
 preserveAspectRatio="xMidYMid meet">
<metadata>
Created by potrace 1.14, written by Peter Selinger 2001-2017
</metadata>
<g transform="translate(0.000000,1250.000000) scale(0.100000,-0.100000)"
fill="#000000" stroke="none">
<path d="M0 6250 l0 -6250 6250 0 6250 0 0 6250 0 6250 -6250 0 -6250 0 0
-6250z m4530 3596 c0 -2 -29 -338 -65 -746 -36 -408 -65 -749 -65 -756 0 -12
83 -14 537 -12 l538 3 67 755 c36 415 67 756 67 758 1 1 244 2 541 2 l540 0 0
-24 c0 -28 -116 -1375 -125 -1448 l-6 -48 341 0 340 0 0 -650 0 -650 -395 0
-394 0 -5 -32 c-7 -41 -126 -1415 -126 -1451 l0 -27 460 0 460 0 0 -650 0
-650 -520 0 c-356 0 -520 -3 -520 -10 0 -18 -139 -1610 -145 -1667 l-6 -53
-544 0 -544 0 5 32 c7 52 144 1637 144 1669 l0 29 -534 0 -535 0 -6 -42 c-6
-50 -145 -1641 -145 -1669 0 -18 -18 -19 -546 -19 l-546 0 6 58 c7 60 146
1648 146 1663 0 5 -153 9 -345 9 l-345 0 0 650 0 650 403 0 402 0 64 733 c35
402 65 742 68 755 l5 22 -471 0 -471 0 0 650 0 650 524 0 524 0 6 43 c3 23 33
359 66 747 34 388 63 711 65 718 3 9 121 12 545 12 297 0 540 -2 540 -4z
m5880 -2306 l0 -2270 -1075 0 -1075 0 0 2270 0 2270 1075 0 1075 0 0 -2270z
m0 -4105 l0 -935 -1075 0 -1075 0 0 935 0 935 1075 0 1075 0 0 -935z"/>
<path d="M4280 7006 c0 -31 -118 -1389 -125 -1443 l-6 -43 540 0 c298 0 541 4
541 8 0 5 29 343 65 751 36 409 65 745 65 747 0 2 -243 4 -540 4 l-540 0 0
-24z"/>
</g>
</svg>
